{
  "source": "C:\\Users\\Peter\\Desktop\\stuff\\MIUN\\quantitative_research\\video_compression\\videos\\BVI-HD\\BVI-HD_CDVL_videos\\ORIG\\Diver_1920x1080_30fps.mp4",
  "output": "C:\\Users\\Peter\\Desktop\\stuff\\MIUN\\quantitative_research\\video_compression\\compressed_videos\\BVI-HD\\vp9\\4\\Diver_1920x1080_30fps_vp9.webm",
  "codec": "vp9",
  "ok": "Input #0, mov,mp4,m4a,3gp,3g2,mj2, from 'C:\\Users\\Peter\\Desktop\\stuff\\MIUN\\quantitative_research\\video_compression\\videos\\BVI-HD\\BVI-HD_CDVL_videos\\ORIG\\Diver_1920x1080_30fps.mp4':\n  Metadata:\n    major_brand     : isom\n    minor_version   : 512\n    compatible_brands: isomiso2avc1mp41\n    encoder         : Lavf54.28.101\n  Duration: 00:00:05.00, start: 0.000000, bitrate: 196798 kb/s\n  Stream #0:0[0x1](und): Video: h264 (High 4:4:4 Predictive) (avc1 / 0x31637661), yuv420p(progressive), 1920x1080, 196794 kb/s, 30 fps, 30 tbr, 30 tbn (default)\n    Metadata:\n      handler_name    : VideoHandler\n      vendor_id       : [0][0][0][0]\n[out#0/webm @ 000001efdd259380] Codec AVOption b:a (set bitrate (in bits/s)) has not been used for any stream. The most likely reason is either wrong type (e.g. a video option with no video streams) or that it is a private option of some decoder which was not actually used for any stream.\nStream mapping:\n  Stream #0:0 -> #0:0 (h264 (native) -> vp9 (libvpx-vp9))\nPress [q] to stop, [?] for help\n[libvpx-vp9 @ 000001efdda51440] v1.15.2-100-g40561f514\nOutput #0, webm, to 'C:\\Users\\Peter\\Desktop\\stuff\\MIUN\\quantitative_research\\video_compression\\compressed_videos\\BVI-HD\\vp9\\4\\Diver_1920x1080_30fps_vp9.webm':\n  Metadata:\n    major_brand     : isom\n    minor_version   : 512\n    compatible_brands: isomiso2avc1mp41\n    encoder         : Lavf62.3.100\n  Stream #0:0(und): Video: vp9, yuv420p(tv, progressive), 1920x1080, q=2-31, 4000 kb/s, 30 fps, 1k tbn (default)\n    Metadata:\n      encoder         : Lavc62.11.100 libvpx-vp9\n      handler_name    : VideoHandler\n      vendor_id       : [0][0][0][0]\n    Side data:\n      cpb: bitrate max/min/avg: 0/0/0 buffer size: 4000000 vbv_delay: N/A\nframe=    0 fps=0.0 q=0.0 size=       0KiB time=N/A bitrate=N/A speed=N/A elapsed=0:00:00.52    \nframe=    7 fps=6.3 q=24.0 size=       1KiB time=00:00:00.23 bitrate=  21.7kbits/s speed=0.21x elapsed=0:00:01.11    \nframe=   12 fps=7.3 q=21.0 size=       1KiB time=00:00:00.40 bitrate=  12.7kbits/s speed=0.244x elapsed=0:00:01.63    \nframe=   17 fps=7.8 q=21.0 size=       1KiB time=00:00:00.56 bitrate=   9.0kbits/s speed=0.261x elapsed=0:00:02.16    \nframe=   21 fps=7.8 q=11.0 size=       1KiB time=00:00:00.70 bitrate=   7.2kbits/s speed=0.26x elapsed=0:00:02.69    \nframe=   27 fps=8.4 q=21.0 size=       1KiB time=00:00:00.90 bitrate=   5.6kbits/s speed=0.28x elapsed=0:00:03.21    \nframe=   30 fps=8.0 q=22.0 size=       1KiB time=00:00:01.00 bitrate=   5.1kbits/s speed=0.266x elapsed=0:00:03.75    \nframe=   36 fps=8.4 q=23.0 size=       1KiB time=00:00:01.20 bitrate=   4.2kbits/s speed=0.281x elapsed=0:00:04.27    \nframe=   40 fps=8.3 q=23.0 size=       1KiB time=00:00:01.33 bitrate=   3.8kbits/s speed=0.278x elapsed=0:00:04.79    \nframe=   46 fps=8.7 q=23.0 size=       1KiB time=00:00:01.53 bitrate=   3.3kbits/s speed=0.288x elapsed=0:00:05.31    \nframe=   50 fps=8.6 q=25.0 size=       1KiB time=00:00:01.66 bitrate=   3.0kbits/s speed=0.285x elapsed=0:00:05.83    \nframe=   54 fps=8.5 q=25.0 size=       1KiB time=00:00:01.80 bitrate=   2.8kbits/s speed=0.282x elapsed=0:00:06.38    \nframe=   58 fps=8.4 q=26.0 size=       1KiB time=00:00:01.93 bitrate=   2.6kbits/s speed=0.28x elapsed=0:00:06.90    \nframe=   63 fps=8.5 q=26.0 size=       1KiB time=00:00:02.10 bitrate=   2.4kbits/s speed=0.282x elapsed=0:00:07.44    \nframe=   67 fps=8.4 q=25.0 size=       1KiB time=00:00:02.23 bitrate=   2.3kbits/s speed=0.28x elapsed=0:00:07.97    \nframe=   71 fps=8.4 q=12.0 size=       1KiB time=00:00:02.36 bitrate=   2.1kbits/s speed=0.279x elapsed=0:00:08.48    \nframe=   76 fps=8.4 q=26.0 size=       1KiB time=00:00:02.53 bitrate=   2.0kbits/s speed=0.281x elapsed=0:00:09.01    \nframe=   80 fps=8.4 q=26.0 size=       1KiB time=00:00:02.66 bitrate=   1.9kbits/s speed=0.279x elapsed=0:00:09.55    \nframe=   84 fps=8.3 q=27.0 size=       1KiB time=00:00:02.80 bitrate=   1.8kbits/s speed=0.278x elapsed=0:00:10.08    \nframe=   88 fps=8.3 q=26.0 size=       1KiB time=00:00:02.93 bitrate=   1.7kbits/s speed=0.277x elapsed=0:00:10.60    \nframe=   93 fps=8.4 q=27.0 size=       1KiB time=00:00:03.10 bitrate=   1.6kbits/s speed=0.279x elapsed=0:00:11.12    \nframe=   98 fps=8.4 q=26.0 size=       1KiB time=00:00:03.26 bitrate=   1.6kbits/s speed=0.28x elapsed=0:00:11.64    \nframe=  103 fps=8.5 q=26.0 size=       1KiB time=00:00:03.43 bitrate=   1.5kbits/s speed=0.282x elapsed=0:00:12.18    \nframe=  107 fps=8.4 q=14.0 size=       1KiB time=00:00:03.56 bitrate=   1.4kbits/s speed=0.28x elapsed=0:00:12.72    \nframe=  112 fps=8.4 q=29.0 size=       1KiB time=00:00:03.73 bitrate=   1.4kbits/s speed=0.282x elapsed=0:00:13.25    \nframe=  114 fps=8.3 q=29.0 size=       1KiB time=00:00:03.80 bitrate=   1.3kbits/s speed=0.275x elapsed=0:00:13.79    \nframe=  117 fps=8.1 q=31.0 size=       1KiB time=00:00:03.90 bitrate=   1.3kbits/s speed=0.271x elapsed=0:00:14.37    \nframe=  119 fps=8.0 q=17.0 size=       1KiB time=00:00:03.96 bitrate=   1.3kbits/s speed=0.266x elapsed=0:00:14.93    \nframe=  123 fps=7.9 q=33.0 size=       1KiB time=00:00:04.10 bitrate=   1.2kbits/s speed=0.265x elapsed=0:00:15.47    \nframe=  126 fps=7.9 q=32.0 size=       1KiB time=00:00:04.20 bitrate=   1.2kbits/s speed=0.263x elapsed=0:00:15.99    \nframe=  126 fps=7.6 q=32.0 size=       1KiB time=00:00:04.20 bitrate=   1.2kbits/s speed=0.254x elapsed=0:00:16.51    \nframe=  126 fps=7.4 q=32.0 size=       1KiB time=00:00:04.20 bitrate=   1.2kbits/s speed=0.247x elapsed=0:00:17.03    \nframe=  126 fps=7.2 q=32.0 size=       1KiB time=00:00:04.20 bitrate=   1.2kbits/s speed=0.239x elapsed=0:00:17.58    \nframe=  126 fps=7.0 q=32.0 size=       1KiB time=00:00:04.20 bitrate=   1.2kbits/s speed=0.232x elapsed=0:00:18.11    \nframe=  126 fps=6.8 q=32.0 size=       1KiB time=00:00:04.20 bitrate=   1.2kbits/s speed=0.225x elapsed=0:00:18.64    \nframe=  126 fps=6.6 q=32.0 size=       1KiB time=00:00:04.20 bitrate=   1.2kbits/s speed=0.219x elapsed=0:00:19.15    \n[out#0/webm @ 000001efdd259380] video:1998KiB audio:0KiB subtitle:0KiB other streams:0KiB global headers:0KiB muxing overhead: 0.086456%\nframe=  150 fps=7.8 q=32.0 Lsize=    2000KiB time=00:00:05.00 bitrate=3276.6kbits/s speed=0.26x elapsed=0:00:19.23    \n",
  "seconds": 19.478883504867554,
  "probe_out": {}
}